<?xml version="1.0" standalone="no"?><!DOCTYPE svg PUBLIC "-//W3C//DTD SVG 1.1//EN" "http://www.w3.org/Graphics/SVG/1.1/DTD/svg11.dtd"><svg t="1610624581584" class="icon" viewBox="0 0 1024 1024" version="1.1" xmlns="http://www.w3.org/2000/svg" p-id="2592" data-spm-anchor-id="a313x.7781069.0.i1" xmlns:xlink="http://www.w3.org/1999/xlink" width="200" height="200"><defs><style type="text/css"></style></defs><path d="M512 446.129c-97.477 0-189.271-15.352-258.473-43.229-72.082-29.037-111.779-68.773-111.779-111.891v-75.424c0-5.523 4.477-10 10-10s10 4.477 10 10v75.424c0 33.91 36.176 67.93 99.251 93.339 66.883 26.942 156.023 41.78 251 41.78s184.117-14.838 251-41.78c63.075-25.409 99.251-59.429 99.251-93.339v-75.424c0-5.523 4.478-10 10-10s10 4.477 10 10v75.424c0 43.117-39.697 82.854-111.778 111.89-69.201 27.878-160.995 43.23-258.472 43.23z" fill="#0031FF" p-id="2593"></path><path d="M512 370.705c-97.477 0-189.271-15.352-258.473-43.229-72.082-29.036-111.779-68.773-111.779-111.89s39.697-82.854 111.779-111.891C322.729 75.819 414.523 60.466 512 60.466s189.271 15.353 258.473 43.229c72.081 29.037 111.778 68.773 111.778 111.891s-39.697 82.854-111.778 111.89C701.271 355.353 609.477 370.705 512 370.705z m0-290.239c-94.977 0-184.117 14.838-251 41.78-63.076 25.409-99.251 59.43-99.251 93.339s36.176 67.93 99.251 93.339c66.883 26.942 156.023 41.78 251 41.78s184.116-14.838 250.999-41.78c63.076-25.409 99.252-59.429 99.252-93.339s-36.176-67.931-99.252-93.339C696.116 95.304 606.977 80.466 512 80.466z" fill="#0031FF" p-id="2594"></path><path d="M625.613 225.586H398.387c-5.523 0-10-4.477-10-10s4.477-10 10-10h227.226c5.522 0 10 4.477 10 10s-4.477 10-10 10z" fill="#FFDA00" p-id="2595"></path><path d="M512 301.009c-5.523 0-10-4.477-10-10V140.162c0-5.523 4.477-10 10-10 5.522 0 10 4.477 10 10v150.847c0 5.523-4.478 10-10 10zM446.582 605.396a9.984 9.984 0 0 1-8.171-4.225c-3.19-4.508-2.122-10.748 2.386-13.938l130.854-92.608c4.509-3.19 10.749-2.123 13.939 2.386s2.122 10.749-2.386 13.939L452.35 603.557a9.951 9.951 0 0 1-5.768 1.839zM446.582 698.39a9.984 9.984 0 0 1-8.171-4.225c-3.19-4.508-2.123-10.748 2.386-13.939l130.853-92.607c4.511-3.193 10.751-2.123 13.939 2.385 3.191 4.509 2.123 10.749-2.385 13.939L452.35 696.552a9.957 9.957 0 0 1-5.768 1.838zM446.582 791.384a9.984 9.984 0 0 1-8.171-4.225c-3.19-4.508-2.122-10.749 2.386-13.939l130.854-92.607c4.509-3.19 10.749-2.123 13.939 2.387 3.19 4.508 2.122 10.749-2.387 13.939L452.35 789.546a9.957 9.957 0 0 1-5.768 1.838z" fill="#FFDA00" p-id="2596"></path><path d="M512 963.533a9.999 9.999 0 0 1-8.66-5l-66.831-115.755a9.997 9.997 0 0 1-1.34-5V433.634c0-5.523 4.477-10 10-10s10 4.477 10 10v401.464L512 933.533l56.832-98.435V433.635c0-5.523 4.478-10 10-10s10 4.477 10 10v404.143a9.997 9.997 0 0 1-1.34 5L520.66 958.533a10 10 0 0 1-8.66 5z" fill="#0031FF" p-id="2597"></path></svg>